# xmcd
#
# Track frame offsets: 
#        150
#        17637
#        35295
#        45595
#        60112
#        71597
#        91187
#        106132
#        123517
#        139482
#        152915
#        170120
#        188940
#        207087
#        225572
#        239095
#        255742
#        276272
#
# Disc length: 3898 seconds
#
# Revision: 0
# Processed by: cddbd v1.4PL0 Copyright (c) Steve Scherf et al.
# Submitted via: ExactAudioCopy v0.90b4
#
DISCID=fc0f3812
DTITLE=Willie Nelson - All of Me
DYEAR=1900
DGENRE=Acoustic
TTITLE0=Stardust
TTITLE1=All of Me
TTITLE2=What a Wonderful World
TTITLE3=Moon River
TTITLE4=Mona Lisa
TTITLE5=Georgia on My Mind
TTITLE6=South of The Border
TTITLE7=Without a Song
TTITLE8=I'm Confessin' (That I Love You)
TTITLE9=I'm Gonna Sit Right Down (And Write Myself A Letter)
TTITLE10=Harbor Lights
TTITLE11=You'll Never Know
TTITLE12=Autumn Leaves
TTITLE13=To Each His Own
TTITLE14=Who's Scary Now
TTITLE15=Some Enchanted Evening
TTITLE16=September Song
TTITLE17=Over The Rainbow
EXTD=
EXTT0=
EXTT1=
EXTT2=
EXTT3=
EXTT4=
EXTT5=
EXTT6=
EXTT7=
EXTT8=
EXTT9=
EXTT10=
EXTT11=
EXTT12=
EXTT13=
EXTT14=
EXTT15=
EXTT16=
EXTT17=
PLAYORDER=
